<mxfile host="app.diagrams.net" modified="2024-05-19T15:06:34.024Z" agent="Mozilla/5.0 (Windows NT 10.0; Win64; x64) AppleWebKit/537.36 (KHTML, like Gecko) Chrome/125.0.0.0 Safari/537.36 Edg/125.0.0.0" etag="rovqnv1WAColvB9bkZFG" version="24.4.4" type="device">
  <diagram id="C5RBs43oDa-KdzZeNtuy" name="Page-1">
    <mxGraphModel dx="2206" dy="860" grid="1" gridSize="10" guides="1" tooltips="1" connect="1" arrows="1" fold="1" page="1" pageScale="1" pageWidth="827" pageHeight="1169" math="0" shadow="0">
      <root>
        <mxCell id="WIyWlLk6GJQsqaUBKTNV-0" />
        <mxCell id="WIyWlLk6GJQsqaUBKTNV-1" parent="WIyWlLk6GJQsqaUBKTNV-0" />
        <mxCell id="ezQnrbNroKEbChPpnUDh-1" value="&lt;span style=&quot;&quot; id=&quot;docs-internal-guid-8483029a-7fff-266e-c295-133cfb328ac8&quot;&gt;&lt;p dir=&quot;ltr&quot; style=&quot;line-height: 1.38; margin-top: 12pt; margin-bottom: 15pt;&quot;&gt;&lt;b style=&quot;font-weight: normal;&quot;&gt;&amp;nbsp; &amp;nbsp; &lt;/b&gt;&lt;font face=&quot;Arial, sans-serif&quot;&gt;&lt;span style=&quot;font-size: 16px; white-space-collapse: preserve;&quot;&gt;public static String evaluateCredit(double TNHT, int DTD) {&lt;br&gt;        // Kiểm tra tính hợp lệ của đầu vào&lt;/span&gt;&lt;/font&gt;&lt;/p&gt;&lt;p dir=&quot;ltr&quot; style=&quot;line-height: 1.38; margin-top: 12pt; margin-bottom: 15pt;&quot;&gt;&lt;span style=&quot;background-color: initial;&quot;&gt;&lt;span style=&quot;white-space: pre;&quot;&gt;&#x9;&lt;/span&gt;&amp;nbsp; &amp;nbsp;&lt;/span&gt;&lt;font style=&quot;background-color: initial;&quot; face=&quot;Arial, sans-serif&quot;&gt;&lt;span style=&quot;font-size: 16px; white-space-collapse: preserve;&quot;&gt;if (&lt;u&gt;TNHT &amp;lt; MIN_TNHT&lt;/u&gt; || &lt;u&gt;TNHT &amp;gt; MAX_TNHT&lt;/u&gt; || &lt;u&gt;DTD &amp;lt; MIN_DTD&lt;/u&gt; || &lt;u&gt;DTD &amp;gt; MAX_DTD&lt;/u&gt;)&lt;/span&gt;&lt;/font&gt;&lt;span style=&quot;background-color: initial;&quot;&gt;&amp;nbsp;&lt;/span&gt;&lt;/p&gt;&lt;p dir=&quot;ltr&quot; style=&quot;line-height: 1.38; margin-top: 12pt; margin-bottom: 15pt;&quot;&gt;&lt;font face=&quot;Arial, sans-serif&quot;&gt;&lt;span style=&quot;font-size: 16px; white-space-collapse: preserve;&quot;&gt;&lt;span style=&quot;white-space: pre;&quot;&gt;&#x9;&lt;/span&gt;&lt;span style=&quot;white-space: pre;&quot;&gt;&#x9;&lt;/span&gt;&lt;span style=&quot;white-space: pre;&quot;&gt;&lt;span style=&quot;white-space: pre;&quot;&gt;&#x9;&lt;/span&gt;&lt;/span&gt;1c1&lt;span style=&quot;white-space: pre;&quot;&gt;&#x9;&lt;/span&gt;&lt;span style=&quot;white-space: pre;&quot;&gt;&#x9;&lt;/span&gt;&lt;span style=&quot;white-space: pre;&quot;&gt;&#x9;&lt;/span&gt;&lt;span style=&quot;white-space: pre;&quot;&gt;&#x9;&lt;/span&gt;    1c2&lt;span style=&quot;white-space: pre;&quot;&gt;&#x9;&lt;/span&gt;&lt;span style=&quot;white-space: pre;&quot;&gt;&#x9;&lt;/span&gt;&lt;span style=&quot;white-space: pre;&quot;&gt;&#x9;&lt;/span&gt;&lt;span style=&quot;white-space: pre;&quot;&gt;&#x9;&lt;/span&gt;   1c3&lt;span style=&quot;white-space: pre;&quot;&gt;&#x9;&lt;/span&gt;&lt;span style=&quot;white-space: pre;&quot;&gt;&#x9;&lt;/span&gt;&lt;span style=&quot;white-space: pre;&quot;&gt;&#x9;&lt;/span&gt;1c4  &lt;span style=&quot;white-space: pre;&quot;&gt;&#x9;&lt;/span&gt; &lt;br&gt;            return &quot;Đầu vào không hợp lệ&quot;;   |      2&lt;br&gt;&lt;br&gt;        // Đánh giá mức độ tín dụng&lt;br&gt;        if (&lt;u&gt;TNHT &amp;lt; 1000&lt;/u&gt; || &lt;u&gt;DTD &amp;lt; 500&lt;/u&gt;) {&lt;/span&gt;&lt;/font&gt;&lt;/p&gt;&lt;p dir=&quot;ltr&quot; style=&quot;line-height: 1.38; margin-top: 12pt; margin-bottom: 15pt;&quot;&gt;&lt;font face=&quot;Arial, sans-serif&quot;&gt;&lt;span style=&quot;font-size: 16px; white-space-collapse: preserve;&quot;&gt;&lt;span style=&quot;white-space: pre;&quot;&gt;&#x9;&lt;/span&gt;&lt;span style=&quot;white-space: pre;&quot;&gt;&#x9;&lt;/span&gt;     3c1&lt;span style=&quot;white-space: pre;&quot;&gt;&#x9;&lt;/span&gt;           3c2&lt;br&gt;            return &quot;Không đủ điều kiện vay vốn&quot;;      | 4&lt;br&gt;        } else if (&lt;u&gt;TNHT &amp;gt;= 20000&lt;/u&gt; &amp;amp;&amp;amp; &lt;u&gt;DTD &amp;gt;= 700&lt;/u&gt;) {&lt;/span&gt;&lt;/font&gt;&lt;/p&gt;&lt;p dir=&quot;ltr&quot; style=&quot;line-height: 1.38; margin-top: 12pt; margin-bottom: 15pt;&quot;&gt;&lt;font face=&quot;Arial, sans-serif&quot;&gt;&lt;span style=&quot;font-size: 16px; white-space-collapse: preserve;&quot;&gt;&lt;span style=&quot;white-space: pre;&quot;&gt;&#x9;&lt;/span&gt;&lt;span style=&quot;white-space: pre;&quot;&gt;&#x9;&lt;/span&gt;&lt;span style=&quot;white-space: pre;&quot;&gt;&#x9;&lt;/span&gt;&lt;span style=&quot;white-space: pre;&quot;&gt;&#x9;&lt;/span&gt;5&lt;span style=&quot;white-space: pre;&quot;&gt;&#x9;&lt;/span&gt;&lt;span style=&quot;white-space: pre;&quot;&gt;&#x9;&lt;/span&gt;&lt;span style=&quot;white-space: pre;&quot;&gt;&#x9;&lt;/span&gt;&lt;span style=&quot;white-space: pre;&quot;&gt;&#x9;&lt;/span&gt;6&lt;span style=&quot;white-space: pre;&quot;&gt;&#x9;&lt;/span&gt;&lt;span style=&quot;white-space: pre;&quot;&gt;&#x9;&lt;/span&gt;&lt;span style=&quot;white-space: pre;&quot;&gt;&#x9;&lt;/span&gt;&lt;span style=&quot;white-space: pre;&quot;&gt;&#x9;&lt;/span&gt;&lt;br&gt;            return &quot;Đủ điều kiện vay vốn mức cao&quot;;   | 7&lt;br&gt;        } else if (&lt;u&gt;TNHT &amp;gt;= 5000&lt;/u&gt; &amp;amp;&amp;amp; &lt;u&gt;DTD &amp;gt;= 600&lt;/u&gt;) {&lt;/span&gt;&lt;/font&gt;&lt;/p&gt;&lt;p dir=&quot;ltr&quot; style=&quot;line-height: 1.38; margin-top: 12pt; margin-bottom: 15pt;&quot;&gt;&lt;font face=&quot;Arial, sans-serif&quot;&gt;&lt;span style=&quot;font-size: 16px; white-space-collapse: preserve;&quot;&gt;&lt;span style=&quot;white-space: pre;&quot;&gt;&#x9;&lt;/span&gt;&lt;span style=&quot;white-space: pre;&quot;&gt;&#x9;&lt;/span&gt;&lt;span style=&quot;white-space: pre;&quot;&gt;&#x9;&lt;/span&gt;&lt;span style=&quot;white-space: pre;&quot;&gt;&#x9;&lt;/span&gt;8&lt;span style=&quot;white-space: pre;&quot;&gt;&#x9;&lt;/span&gt;&lt;span style=&quot;white-space: pre;&quot;&gt;&#x9;&lt;/span&gt;&lt;span style=&quot;white-space: pre;&quot;&gt;&#x9;&lt;/span&gt;&lt;span style=&quot;white-space: pre;&quot;&gt;&#x9;&lt;/span&gt;9&lt;br&gt;            return &quot;Đủ điều kiện vay vốn mức trung bình&quot;;    | 10&lt;br&gt;        } else {&lt;br&gt;            return &quot;Đủ điều kiện vay vốn mức thấp&quot;;     | 11&lt;br&gt;        }&lt;br&gt;    }&lt;/span&gt;&lt;/font&gt;&lt;br&gt;&lt;/p&gt;&lt;/span&gt;" style="text;whiteSpace=wrap;html=1;" parent="WIyWlLk6GJQsqaUBKTNV-1" vertex="1">
          <mxGeometry x="-90" y="430" width="760" height="410" as="geometry" />
        </mxCell>
        <mxCell id="T1bMZ6FQiI1dHEg5VdPg-0" value="" style="ellipse;shape=doubleEllipse;whiteSpace=wrap;html=1;aspect=fixed;fillColor=#000000;" vertex="1" parent="WIyWlLk6GJQsqaUBKTNV-1">
          <mxGeometry x="-610" y="280" width="80" height="80" as="geometry" />
        </mxCell>
        <mxCell id="T1bMZ6FQiI1dHEg5VdPg-1" value="" style="shape=waypoint;sketch=0;fillStyle=solid;size=6;pointerEvents=1;points=[];fillColor=none;resizable=0;rotatable=0;perimeter=centerPerimeter;snapToPoint=1;" vertex="1" parent="WIyWlLk6GJQsqaUBKTNV-1">
          <mxGeometry x="-470" y="460" width="20" height="20" as="geometry" />
        </mxCell>
        <mxCell id="T1bMZ6FQiI1dHEg5VdPg-2" value="" style="ellipse;shape=doubleEllipse;whiteSpace=wrap;html=1;aspect=fixed;fillColor=#000000;strokeColor=#ffffff;strokeWidth=3;" vertex="1" parent="WIyWlLk6GJQsqaUBKTNV-1">
          <mxGeometry x="-590" y="590" width="30" height="30" as="geometry" />
        </mxCell>
      </root>
    </mxGraphModel>
  </diagram>
</mxfile>
